<svg xmlns="http://www.w3.org/2000/svg" viewBox="0 0 18 18" class="icon"><path fill-rule="evenodd" d="M.163 12.58a.23.23 0 01.116.05c2.535 1.86 5.672 2.98 8.911 2.98 2.183 0 4.586-.57 6.795-1.753.333-.179.61.273.284.579-1.97 1.833-4.83 2.814-7.29 2.814-3.449 0-6.55-1.611-8.899-4.289-.15-.17-.071-.393.083-.382zm16.515-.445c.63-.01 1.145.145 1.253.313.216.338-.055 2.675-1.114 3.79-.163.172-.316.077-.243-.15l.147-.47c.254-.83.578-2.027.37-2.363-.251-.406-1.669-.192-2.304-.097-.193.03-.222-.183-.049-.336.564-.5 1.31-.675 1.94-.687zM9.028 0c1.09 0 2.51.297 3.37 1.146 1.088 1.046.986 2.442.986 3.96v3.59c0 1.079.435 1.552.845 2.135.145.207.174.454-.008.61l-.625.548-1.09.98a.475.475 0 01-.536.05c-.743-.634-.874-.93-1.283-1.536-1.228 1.29-2.1 1.675-3.692 1.675-1.882 0-3.347-1.196-3.347-3.59 0-1.868.986-3.138 2.387-3.759.81-.367 1.833-.534 2.809-.65l1.396-.153.002-.674c-.001-.45-.03-.923-.272-1.29-.274-.425-.793-.6-1.253-.6-.802 0-1.525.399-1.762 1.223l-.039.16c-.033.181-.152.36-.317.408l-.073.012-2.168-.239c-.183-.042-.385-.194-.334-.482C4.524.816 6.9 0 9.028 0zm1.212 6.855c-1.617 0-3.324.354-3.324 2.316 0 .994.5 1.667 1.358 1.667.63 0 1.194-.398 1.55-1.046.36-.652.41-1.27.416-1.963v-.974z"></path></svg>