<svg xmlns="http://www.w3.org/2000/svg" viewBox="0 0 16 18" class="icon"><path d="M6.198 9.696l1.544.835 1.555.835a594.21 594.21 0 013.099 1.67c.38.205.564.44.55.704-.015.263-.213.512-.594.747-1.026.527-2.044 1.07-3.055 1.626-1.011.557-2.03 1.114-3.055 1.67-.44.235-.777.279-1.011.132-.235-.146-.352-.468-.352-.967v-6.461c0-.44.125-.733.374-.88.249-.146.564-.117.945.089zm5.363-4.264c.674.351 1.348.71 2.022 1.077l1.978 1.077c.234.146.351.3.351.461 0 .161-.132.315-.395.462l-3.868 2.11c-.294.146-.513.175-.66.088-.146-.088-.22-.308-.22-.66V5.96c0-.293.074-.483.22-.571.147-.088.337-.073.572.044zM1.495.2C2.725.875 3.97 1.549 5.23 2.223l3.78 2.022c.381.205.572.469.572.791 0 .323-.19.586-.572.791L5.275 7.871c-1.26.689-2.52 1.37-3.78 2.044-.44.235-.799.257-1.077.066C.139 9.791 0 9.446 0 8.948V1.08C0 .611.14.29.418.113c.278-.176.637-.146 1.077.088z"></path></svg>