<svg xmlns="http://www.w3.org/2000/svg" viewBox="0 0 18 11" class="icon"><path d="M16.614 2.47c1.77 2.253 1.845 5.16.222 7.467l-.222.298-.732-.405c1.636-2.08 1.655-4.786.057-6.88l-.057-.074.732-.405zM7.078 0c.537 0 1.051.104 1.523.292l.001-.004A4.06 4.06 0 0111.167 3.7l.025.004c1.213.181 2.162 1.198 2.217 2.43l.003.115c0 1.34-1.055 2.452-2.384 2.565l-.224.01H2.98C1.344 8.824 0 7.497 0 5.88a2.912 2.912 0 011.106-2.28l.167-.125a2.993 2.993 0 011.713-.537l.149.006.013-.044C3.644 1.244 5.174.06 6.941.002L7.078 0zm7.695 3.882a4.412 4.412 0 01.046 4.872l-.046.07-.655-.384a3.728 3.728 0 00.042-4.109l-.042-.065.655-.384zM7.081.706c-1.49 0-2.798.976-3.227 2.36.436.134.838.366 1.174.682l.053.052-.53.524a2.257 2.257 0 00-1.031-.581l-.192-.036a2.256 2.256 0 00-.193-.028 2.266 2.266 0 00-1.666.551l-.1.094-.019.018c-.397.402-.644.95-.644 1.551 0 1.2.987 2.195 2.195 2.224h7.93c1.027 0 1.875-.837 1.875-1.853 0-.894-.657-1.65-1.515-1.819a4.026 4.026 0 01-.24 1.02l-.034.091-.697-.275a3.3 3.3 0 00.236-1.054V4.04C10.455 2.212 8.93.706 7.08.706z"></path></svg>