<svg xmlns="http://www.w3.org/2000/svg" viewBox="0 0 18 17" class="icon"><path d="M5.7 13.964c.829 0 1.5.68 1.5 1.518A1.51 1.51 0 015.7 17c-.828 0-1.5-.68-1.5-1.518a1.51 1.51 0 011.5-1.518zm9.001 0c.828 0 1.5.68 1.5 1.518a1.51 1.51 0 01-1.5 1.518c-.828 0-1.5-.68-1.5-1.518a1.51 1.51 0 011.5-1.518zM3.381 0c.38 0 .68.243.78.607l.44 1.74 12.64.588c.26 0 .5.161.64.384.14.243.16.526.04.749l-2.8 6.071a.806.806 0 01-.68.466l-8 .384-.22.931h8.76c.44 0 .8.365.8.81 0 .445-.36.81-.8.81h-9.8a.773.773 0 01-.62-.304c-.14-.182-.2-.446-.14-.688l.54-2.267-2.2-8.662H.8C.36 1.619 0 1.255 0 .809 0 .365.36 0 .8 0h2.58z"></path></svg>