<svg xmlns="http://www.w3.org/2000/svg" viewBox="0 0 50 50" class="icon"><path d="m25 3c-12.15 0-22 9.85-22 22s9.85 22 22 22 22-9.85 22-22-9.85-22-22-22zm0 8c7.72 0 14 6.28 14 14s-6.28 14-14 14-14-6.28-14-14 6.28-14 14-14zm0 2c-6.617 0-12 5.383-12 12s5.383 12 12 12 12-5.383 12-12-5.383-12-12-12zm-2.9805 5.502c0.1745 0.00325 0.34745 0.050531 0.50195 0.14453l9 5.5c0.296 0.181 0.47852 0.50452 0.47852 0.85352s-0.18152 0.67152-0.47852 0.85352l-9 5.5c-0.16 0.097-0.34048 0.14648-0.52148 0.14648-0.168 0-0.33628-0.043906-0.48828-0.12891-0.316-0.177-0.51172-0.51009-0.51172-0.87109v-11c0-0.361 0.19572-0.69409 0.51172-0.87109 0.1585-0.088 0.33331-0.1302 0.50781-0.12695z"></path></svg>